# xmcd
#
# Track frame offsets:
#	150
#	5475
#	20839
#	35693
#	48207
#	56544
#	76233
#	83693
#	98646
#	116027
#	122485
#	136093
#	157598
#	177802
#	199054
#	212769
#	225807
#	241164
#
# Disc length: 3599 seconds
#
# Revision: 1
# Processed by: cddbd v1.5.2PL0 Copyright (c) Steve Scherf et al.
# Submitted via: audiograbber 1.83.01
#
DISCID=d00e0d12
DTITLE=Willie Nelson and Leon Russell - Riding the North East Trail, Passaic NJ 4
DTITLE=1-79 (FM)[CD1]
DYEAR=1979
DGENRE=Country
TTITLE0=Intro
TTITLE1=Whiskey River
TTITLE2=Stay All Night
TTITLE3=Funny How Time Slips Away
TTITLE4=Crazy
TTITLE5=Night Life
TTITLE6=If You've Got the Money
TTITLE7=Sweet Memories
TTITLE8=Bloody Mary Morning
TTITLE9=Gotta Get Drunk
TTITLE10=Shotgun Willie
TTITLE11=Time of the Preacher
TTITLE12=Blue Eyes Crying in the Rain
TTITLE13=The Red Headed Stranger
TTITLE14=Instrumental
TTITLE15=Heartbreak Hotel
TTITLE16=Trouble In Mind
TTITLE17=A Song for You
EXTD=
EXTT0=
EXTT1=
EXTT2=
EXTT3=
EXTT4=
EXTT5=
EXTT6=
EXTT7=
EXTT8=
EXTT9=
EXTT10=
EXTT11=
EXTT12=
EXTT13=
EXTT14=
EXTT15=
EXTT16=
EXTT17=
PLAYORDER=
